<svg width="272" height="256" viewBox="0 0 272 256" fill="none" xmlns="http://www.w3.org/2000/svg">
<g clip-path="url(#clip0_328_2)">
<path d="M128 32V48H112V61V64H96V96V112H112V96H128V112H112V128V144H256V128V112H240V96H224V64V48H208V32H192V48H160V32H128ZM112 144H96V160H112V144ZM112 160V176H224V160H112ZM144 64H160V80V96H144V64ZM192 64H208V96H192V80V64Z" fill="#C3F3F4"/>
<path d="M80 0V16H192V0H80ZM192 16V32H208V16H192ZM208 32V48H224V32H208ZM224 48V96H240V48H224ZM240 96V112H256V96H240ZM256 112V144H272V112H256ZM256 144H112V160H224V176H240V160H256V144ZM224 176H112V192H208V208H224V192V176ZM224 208V224H240V208H224ZM240 224V240H256V224H240ZM256 240V256H272V240H256ZM112 176V160H96V144H80V176H96H112ZM80 176H64V192H80V176ZM64 192H48V208H64V192ZM48 208H32V224H48V208ZM32 224H16V240H32V224ZM16 240H0V256H16V240ZM80 144V128H64V144H80ZM64 128V112H48V128H64ZM48 112V48H32V112H48ZM48 48H64V32H48V48ZM64 32H80V16H64V32ZM64 112H80V80H64V112ZM96 144H112V112H96V144ZM112 112H128V96H112V112ZM112 208V224H128V208H112ZM128 224V256H144V224H128ZM192 240V256H208V240H192Z" fill="#0F1A38"/>
<path d="M80 176V192H96V176H80ZM80 192H64V208H80V192ZM64 208H48V224H64V208ZM48 224H32V240H48V224ZM32 240H16V256H32V240Z" fill="#C08961"/>
<path d="M144 192V240V256H192V240V192H176V240H160V192H144Z" fill="#EBEDE8"/>
<path d="M176 192H160V240H176V192Z" fill="#4F7177"/>
<path d="M144 64V96H160V64H144ZM192 64V96H208V64H192Z" fill="#34D7C0"/>
<path d="M96 16V32H80V48H64V80H80V144H96V64H112V48H128V32H160V48H192V16H160H96Z" fill="#4F9DC4"/>
<path d="M80 16V32H96V16H80ZM80 32H64V48H80V32ZM64 48H48V112H64V48ZM64 112V128H80V112H64Z" fill="#3585BA"/>
<path d="M96 176V192H80V208H64V224H48V240H32V256H128V240V224H112V208H128V224H144V208V192H112V176H96ZM192 192V240H208V256H224H240H256V240H240V224H224V208H208V192H192Z" fill="#E7D1A7"/>
</g>
<defs>
<clipPath id="clip0_328_2">
<rect width="272" height="256" fill="white"/>
</clipPath>
</defs>
</svg>
